<?xml version="1.0" encoding="UTF-8"?>
<svg xmlns="http://www.w3.org/2000/svg" viewBox="0 0 800 500" role="img" aria-label="Activation">
  <defs>
    <filter id="g260" x="0" y="0" width="100%" height="100%">
      <feTurbulence type="fractalNoise" baseFrequency="0.85" numOctaves="3" seed="260" result="n"/>
      <feColorMatrix type="saturate" values="0"/>
      <feComponentTransfer>
        <feFuncA type="linear" slope="0.16"/>
      </feComponentTransfer>
    </filter>
  </defs>
  <rect width="800" height="500" fill="#E8C39A"/>
  <rect width="800" height="500" filter="url(#g260)" opacity="0.55"/>
  <g stroke="#241C14" fill="none" stroke-width="0.6" opacity="0.2"><circle cx="400" cy="235" r="40.0"/><circle cx="400" cy="235" r="80.0" stroke-dasharray="2 3"/><circle cx="400" cy="235" r="120.0"/><circle cx="400" cy="235" r="160.0" stroke-dasharray="2 3"/><line x1="400" y1="235" x2="400.0" y2="75.0"/><line x1="400" y1="235" x2="454.7" y2="84.6"/><line x1="400" y1="235" x2="502.8" y2="112.4"/><line x1="400" y1="235" x2="538.6" y2="155.0"/><line x1="400" y1="235" x2="557.6" y2="207.2"/><line x1="400" y1="235" x2="557.6" y2="262.8"/><line x1="400" y1="235" x2="538.6" y2="315.0"/><line x1="400" y1="235" x2="502.8" y2="357.6"/><line x1="400" y1="235" x2="454.7" y2="385.4"/><line x1="400" y1="235" x2="400.0" y2="395.0"/><line x1="400" y1="235" x2="345.3" y2="385.4"/><line x1="400" y1="235" x2="297.2" y2="357.6"/><line x1="400" y1="235" x2="261.4" y2="315.0"/><line x1="400" y1="235" x2="242.4" y2="262.8"/><line x1="400" y1="235" x2="242.4" y2="207.2"/><line x1="400" y1="235" x2="261.4" y2="155.0"/><line x1="400" y1="235" x2="297.2" y2="112.4"/><line x1="400" y1="235" x2="345.3" y2="84.6"/></g><line x1="382.3" y1="225.6" x2="263.1" y2="162.4" stroke="#241C14" stroke-width="0.6"/><line x1="386.6" y1="220.2" x2="290.8" y2="114.0" stroke="#241C14" stroke-width="0.85"/><line x1="392.5" y1="216.5" x2="335.8" y2="76.5" stroke="#241C14" stroke-width="1.1"/><line x1="399.3" y1="215.0" x2="394.4" y2="80.1" stroke="#241C14" stroke-width="1.35"/><line x1="406.2" y1="216.0" x2="450.2" y2="79.9" stroke="#241C14" stroke-width="0.6"/><line x1="412.3" y1="219.2" x2="505.1" y2="100.1" stroke="#241C14" stroke-width="0.85"/><line x1="416.9" y1="224.4" x2="531.4" y2="152.7" stroke="#241C14" stroke-width="1.1"/><line x1="419.6" y1="230.8" x2="559.4" y2="200.9" stroke="#241C14" stroke-width="1.35"/><line x1="419.8" y1="237.8" x2="569.4" y2="258.6" stroke="#241C14" stroke-width="0.6"/><line x1="417.7" y1="244.4" x2="536.9" y2="307.6" stroke="#241C14" stroke-width="0.85"/><line x1="413.4" y1="249.8" x2="509.2" y2="356.0" stroke="#241C14" stroke-width="1.1"/><line x1="407.5" y1="253.5" x2="464.2" y2="393.5" stroke="#241C14" stroke-width="1.35"/><line x1="400.7" y1="255.0" x2="405.6" y2="389.9" stroke="#241C14" stroke-width="0.6"/><line x1="393.8" y1="254.0" x2="349.8" y2="390.1" stroke="#241C14" stroke-width="0.85"/><line x1="387.7" y1="250.8" x2="294.9" y2="369.9" stroke="#241C14" stroke-width="1.1"/><line x1="383.1" y1="245.6" x2="268.6" y2="317.3" stroke="#241C14" stroke-width="1.35"/><line x1="380.4" y1="239.2" x2="240.6" y2="269.1" stroke="#241C14" stroke-width="0.6"/><line x1="380.2" y1="232.2" x2="230.6" y2="211.4" stroke="#241C14" stroke-width="0.85"/><circle cx="400" cy="235" r="16" fill="#D4A06C" stroke="#241C14" stroke-width="1"/>
  <text x="400" y="458" text-anchor="middle" font-family="Georgia, 'Times New Roman', serif"
        font-size="22" fill="#241C14">Fig. 50.</text>
  <text x="28" y="484" font-family="Georgia, 'Times New Roman', serif" font-size="9"
        fill="#241C14" opacity="0.45">Psyclopédia · planche 50 · Activation</text>
</svg>
